<?xml version="1.0" standalone="no"?>
<!DOCTYPE svg PUBLIC "-//W3C//DTD SVG 20010904//EN"
 "http://www.w3.org/TR/2001/REC-SVG-20010904/DTD/svg10.dtd">
<svg version="1.0" xmlns="http://www.w3.org/2000/svg"
 width="400.000000pt" height="400.000000pt" viewBox="0 0 400.000000 400.000000"
 preserveAspectRatio="xMidYMid meet">
<metadata>
Created by potrace 1.11, written by Peter Selinger 2001-2013
</metadata>
<g transform="translate(0.000000,400.000000) scale(0.100000,-0.100000)"
fill="#000000" stroke="none">
<path d="M1805 3993 c-485 -57 -893 -250 -1221 -577 -179 -180 -283 -323 -389
-541 -72 -148 -133 -321 -166 -475 -20 -92 -23 -139 -25 -375 -3 -281 2 -333
51 -525 95 -376 326 -751 615 -1000 14 -12 36 -31 50 -43 14 -12 41 -33 60
-47 19 -13 37 -27 40 -31 3 -4 49 -34 102 -67 171 -107 356 -189 531 -237 107
-29 103 -28 237 -52 104 -18 426 -24 538 -10 143 18 390 77 467 112 16 8 59
26 95 40 139 57 395 210 460 275 3 3 30 26 60 51 230 193 436 486 553 785 35
88 80 238 91 299 3 17 10 53 15 82 29 148 36 487 13 613 -6 36 -14 83 -18 105
-3 22 -8 43 -10 46 -2 3 -6 19 -8 35 -12 63 -16 77 -51 181 -149 441 -457 826
-852 1067 -220 133 -459 224 -698 265 -33 5 -76 13 -95 16 -39 7 -398 13 -445
8z"/>
</g>
</svg>
